<svg width="113" height="31" viewBox="0 0 113 31" fill="none" xmlns="http://www.w3.org/2000/svg">
<path d="M43.8546 9.93054C43.1761 10.6107 42.2434 11.0318 41.214 11.0318C39.1394 11.0318 37.456 9.32544 37.456 7.22058C37.456 5.11573 39.1394 3.4095 41.214 3.4095C42.2517 3.4095 43.1911 3.83623 43.8713 4.52598L45.5774 2.79585C44.4606 1.66296 42.9183 0.962738 41.214 0.962738C37.8059 0.962738 35.0435 3.7645 35.0435 7.22058C35.0435 10.6767 37.8059 13.4783 41.214 13.4783C42.91 13.4783 44.4458 12.7836 45.5607 11.6609L43.8546 9.93054Z" fill="white"/>
<path d="M50.2252 1.19025H47.695V13.3008H50.2252V1.19025Z" fill="white"/>
<path d="M62.2477 1.19025L58.7256 6.52761L55.1624 1.19025H52.8735V13.3009H55.4196V6.08604L58.1499 10.1659H59.3404L62.0386 6.1035V13.3009H64.5693V1.19025H62.2477Z" fill="white"/>
<path d="M66.2054 3.67359H70.0062V13.3008H72.5524V3.67359H76.3533V1.20483H66.2054V3.67359Z" fill="white"/>
<path d="M89.4934 7.22057C89.4934 10.6767 86.731 13.4782 83.3223 13.4782C79.9142 13.4782 77.1518 10.6767 77.1518 7.22057C77.1518 3.76448 79.9142 0.962721 83.3223 0.962721C86.731 0.962721 89.4934 3.76448 89.4934 7.22057Z" fill="white"/>
<path d="M98.193 6.70319C97.8811 7.05836 97.4362 7.23865 96.8717 7.23865H93.9375V3.68815H96.8717C98.1691 3.68815 98.6294 4.64441 98.6294 5.46331C98.6294 5.93577 98.4702 6.38746 98.193 6.70319ZM96.8717 1.19025H91.3915V13.3009H93.9375V9.7219H96.8717C99.6893 9.7219 101.164 7.57602 101.164 5.45598C101.164 3.33594 99.6893 1.19025 96.8717 1.19025Z" fill="white"/>
<path d="M107.915 5.87012L107.796 5.84725C106.1 5.53606 105.294 5.29399 105.294 4.76079C105.294 3.55408 107.588 3.53994 107.6 3.53994C108.742 3.55477 109.552 3.72669 110.066 4.54001L112.171 3.18163C110.891 1.30069 109.223 1.04169 107.61 1.04169C106.824 1.04169 104.864 1.17782 103.649 2.43515C103.041 3.06556 102.728 3.88604 102.747 4.79029C102.747 7.43218 105.404 7.94304 107.348 8.31688C109.252 8.67555 110.101 8.9548 110.094 9.67073C110.094 10.8518 108.358 10.9799 107.61 10.9799C106.593 10.9799 105.258 10.4874 104.789 9.57439L102.529 10.7413C103.558 12.7479 105.829 13.4631 107.61 13.4631C110.698 13.4631 112.625 12.0175 112.64 9.68522C112.64 6.7639 109.909 6.24728 107.915 5.87012Z" fill="white"/>
<path d="M83.3221 3.79938C81.4616 3.79938 79.9484 5.33072 79.9484 7.22055C79.9484 9.11021 81.4616 10.6416 83.3221 10.6416C85.1833 10.6416 86.6964 9.11021 86.6964 7.22055C86.6964 5.33072 85.1833 3.79938 83.3221 3.79938Z" fill="#E60013"/>
<path d="M53.7308 30.008C55.8003 30.008 57.519 29.1479 58.659 28.1298V23.2327H53.5905V24.4789H57.3261V27.533C56.4843 28.2176 55.1864 28.7617 53.7834 28.7617C50.802 28.7617 48.9254 26.5852 48.9254 23.6539V23.6188C48.9254 20.8806 50.8721 18.5812 53.5905 18.5812C55.3268 18.5812 56.379 19.1605 57.3261 19.9855L58.2205 18.9323C56.9929 17.8967 55.7126 17.2999 53.6431 17.2999C49.9602 17.2999 47.4873 20.2838 47.4873 23.6539V23.689C47.4873 27.1995 49.8725 30.008 53.7308 30.008Z" fill="white"/>
<path d="M41.0221 29.9728C43.4598 29.9728 45.2136 28.6038 45.2136 26.4975V26.4623C45.2136 24.5842 43.9508 23.5837 41.215 22.9869C38.5141 22.4077 37.8828 21.7583 37.8828 20.5998V20.5647C37.8828 19.4589 38.8999 18.5812 40.4959 18.5812C41.7586 18.5812 42.8986 18.985 44.0386 19.9152L44.8453 18.8445C43.6001 17.844 42.3198 17.335 40.531 17.335C38.1985 17.335 36.4973 18.7568 36.4973 20.6875V20.7227C36.4973 22.7412 37.7951 23.6539 40.6187 24.2683C43.1968 24.8124 43.8106 25.4618 43.8106 26.6028V26.6379C43.8106 27.849 42.7232 28.7266 41.0747 28.7266C39.3735 28.7266 38.1459 28.1474 36.8656 26.9889L36.0062 28.007C37.4794 29.3234 39.0754 29.9728 41.0221 29.9728Z" fill="white"/>
<path d="M75.3372 29.7973H67.0418V17.5105H68.4272V28.516H75.3372V29.7973Z" fill="white"/>
<path fill-rule="evenodd" clip-rule="evenodd" d="M97.21 29.7973H91.7557V17.5105H96.982C98.385 17.5105 99.4899 17.9142 100.191 18.5988C100.7 19.1254 100.981 19.7748 100.981 20.5647V20.5998C100.981 22.197 99.9985 23.022 99.0339 23.4433C100.49 23.8821 101.665 24.7246 101.665 26.4097V26.4448C101.665 28.5511 99.8933 29.7973 97.21 29.7973ZM96.754 22.9869C98.4201 22.9869 99.5776 22.2322 99.5776 20.7928V20.7578C99.5776 19.5466 98.613 18.7568 96.8592 18.7568H93.1237V22.9869H96.754ZM100.262 26.357V26.3219C100.262 24.9879 99.1392 24.2156 96.9995 24.2156H93.1237V28.5511H97.2451C99.1041 28.5511 100.262 27.7261 100.262 26.357Z" fill="white"/>
<path fill-rule="evenodd" clip-rule="evenodd" d="M76.8479 29.8266H78.2684L79.7241 26.5794H86.406L87.8441 29.8266H89.3348L83.7403 17.4521H82.4425L76.8479 29.8266ZM80.2678 25.3156L83.0738 19.0669L85.8623 25.3156H80.2678Z" fill="white"/>
<path fill-rule="evenodd" clip-rule="evenodd" d="M8.09261 7.9606C8.09261 8.24137 8.21245 8.49424 8.40393 8.67118C8.57734 8.8314 8.80949 8.92935 9.06459 8.92935H11.5483L3.13672 25.2719C2.4731 26.5612 3.41247 28.0938 4.86638 28.0938H25.751C27.1992 28.0938 28.1389 26.5723 27.4867 25.2836L19.2093 8.92935H21.5839C21.873 8.92935 22.1326 8.80358 22.3106 8.60395C22.4632 8.43286 22.5559 8.20752 22.5559 7.9606V3.875C22.5559 3.33997 22.1207 2.90625 21.5839 2.90625H9.06459C8.52778 2.90625 8.09261 3.33997 8.09261 3.875V7.9606Z" fill="url(#paint0_linear_23_1187)"/>
<path fill-rule="evenodd" clip-rule="evenodd" d="M8.40393 8.67118C8.21244 8.49424 8.0926 8.24137 8.0926 7.9606V3.875C8.0926 3.33997 8.52777 2.90625 9.06458 2.90625H21.5839C22.1207 2.90625 22.5559 3.33997 22.5559 3.875V7.9606C22.5559 8.20752 22.4632 8.43286 22.3106 8.60395C22.1326 8.80358 21.873 8.92935 21.5839 8.92935H19.2093L27.4867 25.2836C28.1389 26.5723 27.1992 28.0938 25.751 28.0938H4.86637C3.41246 28.0938 2.4731 26.5612 3.13671 25.2719L11.5483 8.92935H9.06458C8.80948 8.92935 8.57733 8.8314 8.40393 8.67118ZM23.6475 11.2453C24.7433 10.56 25.4718 9.34511 25.4718 7.9606V3.875C25.4718 1.7349 23.7312 0 21.5839 0H9.06458C6.91733 0 5.17664 1.7349 5.17664 3.875V7.9606C5.17664 9.36993 5.93153 10.6035 7.06029 11.2817L0.542225 23.9454C-1.11681 27.1687 1.2316 31 4.86637 31H25.751C29.3713 31 31.7207 27.1963 30.0901 23.9747L23.6475 11.2453Z" fill="white"/>
<mask id="mask0_23_1187" style="mask-type:alpha" maskUnits="userSpaceOnUse" x="2" y="2" width="26" height="27">
<path d="M11.5483 8.92935H9.06459C8.52778 8.92935 8.09261 8.49562 8.09261 7.9606V3.875C8.09261 3.33997 8.52778 2.90625 9.06459 2.90625H21.5839C22.1207 2.90625 22.5559 3.33997 22.5559 3.875V7.9606C22.5559 8.49562 22.1207 8.92935 21.5839 8.92935H19.2093L27.4867 25.2836C28.1389 26.5723 27.1992 28.0938 25.751 28.0938H4.86638C3.41247 28.0938 2.4731 26.5612 3.13672 25.2719L11.5483 8.92935Z" fill="#C4C4C4"/>
</mask>
<g mask="url(#mask0_23_1187)">
<mask id="mask1_23_1187" style="mask-type:alpha" maskUnits="userSpaceOnUse" x="2" y="2" width="26" height="27">
<rect x="2.95029" y="2.87762" width="24.7823" height="25.2447" fill="#C4C4C4"/>
</mask>
<g mask="url(#mask1_23_1187)">
<path opacity="0.4" d="M12.7443 14.6569C21.2239 18.7262 26.3966 14.1018 27.923 11.2809L39.3195 24.3789L30.1301 35.6039L6.83658 42.77L-8.24345 37.6873L-3.62019 18.2966C-1.69848 15.3878 4.26481 10.5875 12.7443 14.6569Z" fill="#E60013"/>
<path opacity="0.4" d="M4.4733 16.4292C-3.8243 21.1869 -10.5407 18.2647 -12.8617 16.2089L-22.2375 28.8555L-9.60494 36.5133L17.4599 38.4782L32.718 31.7827L23.1626 16.6667C20.3902 14.6051 12.7709 11.6715 4.4733 16.4292Z" fill="#E60013"/>
<path opacity="0.4" d="M18.2893 15.8255C8.45805 18.8843 2.84135 13.5705 1.26189 10.5313L-12.3598 22.3492L-2.54279 34.8298L23.4814 44.9599L40.8499 41.6965L36.6469 21.5334C34.624 18.3563 28.1205 12.7668 18.2893 15.8255Z" fill="#E60013" stroke="url(#paint1_linear_23_1187)" stroke-width="3"/>
<g opacity="0.4">
<path d="M15.7868 15.5513C6.84922 20.6549 0.21508 16.6758 -1.9848 14.0483L-12.7281 28.5208L-0.441858 38.5932L27.1609 42.8808L43.4137 35.9544L34.9467 17.1717C32.2841 14.5051 24.7243 10.4477 15.7868 15.5513Z" fill="#E60013"/>
<path d="M15.7868 15.5513C6.84922 20.6549 0.21508 16.6758 -1.9848 14.0483L-12.7281 28.5208L-0.441858 38.5932L27.1609 42.8808L43.4137 35.9544L34.9467 17.1717C32.2841 14.5051 24.7243 10.4477 15.7868 15.5513Z" stroke="url(#paint2_linear_23_1187)" stroke-width="3" style="mix-blend-mode:lighten"/>
</g>
<ellipse cx="18.7424" cy="18.6484" rx="3.15895" ry="3.14844" fill="url(#paint3_radial_23_1187)"/>
<ellipse cx="18.7424" cy="18.6484" rx="3.15895" ry="3.14844" fill="url(#paint4_radial_23_1187)" fill-opacity="0.2"/>
<ellipse opacity="0.9" cx="17.1772" cy="16.9388" rx="0.721178" ry="0.719409" fill="white"/>
<ellipse cx="10.9666" cy="24.4609" rx="1.21498" ry="1.21094" fill="url(#paint5_radial_23_1187)"/>
<ellipse cx="10.9666" cy="24.4609" rx="1.21498" ry="1.21094" fill="url(#paint6_radial_23_1187)" fill-opacity="0.2"/>
<ellipse cx="10.3915" cy="23.7078" rx="0.163904" ry="0.163503" fill="url(#paint7_radial_23_1187)"/>
<ellipse cx="10.3915" cy="23.7078" rx="0.163904" ry="0.163503" fill="url(#paint8_radial_23_1187)" fill-opacity="0.2"/>
</g>
</g>
<defs>
<linearGradient id="paint0_linear_23_1187" x1="15.3087" y1="-1.47152" x2="15.3087" y2="28.0937" gradientUnits="userSpaceOnUse">
<stop stop-color="white" stop-opacity="0.54"/>
<stop offset="1" stop-color="white" stop-opacity="0"/>
</linearGradient>
<linearGradient id="paint1_linear_23_1187" x1="4.13039" y1="13.0801" x2="13.1443" y2="14.589" gradientUnits="userSpaceOnUse">
<stop stop-color="white"/>
<stop offset="1" stop-color="white" stop-opacity="0"/>
</linearGradient>
<linearGradient id="paint2_linear_23_1187" x1="4.29429" y1="17.2658" x2="17.1112" y2="16.5721" gradientUnits="userSpaceOnUse">
<stop stop-color="white"/>
<stop offset="1" stop-color="white" stop-opacity="0"/>
</linearGradient>
<radialGradient id="paint3_radial_23_1187" cx="0" cy="0" r="1" gradientUnits="userSpaceOnUse" gradientTransform="translate(18.952 22.1316) rotate(-92.0751) scale(7.06138 7.08492)">
<stop stop-color="white" stop-opacity="0"/>
<stop offset="1" stop-color="white"/>
</radialGradient>
<radialGradient id="paint4_radial_23_1187" cx="0" cy="0" r="1" gradientUnits="userSpaceOnUse" gradientTransform="translate(18.7424 12.7793) rotate(90) scale(9.01755 9.04766)">
<stop stop-color="white"/>
</radialGradient>
<radialGradient id="paint5_radial_23_1187" cx="0" cy="0" r="1" gradientUnits="userSpaceOnUse" gradientTransform="translate(11.0472 25.8006) rotate(-92.0751) scale(2.71592 2.72497)">
<stop stop-color="white" stop-opacity="0"/>
<stop offset="1" stop-color="white"/>
</radialGradient>
<radialGradient id="paint6_radial_23_1187" cx="0" cy="0" r="1" gradientUnits="userSpaceOnUse" gradientTransform="translate(10.9666 22.2036) rotate(90) scale(3.46829 3.47987)">
<stop stop-color="white"/>
</radialGradient>
<radialGradient id="paint7_radial_23_1187" cx="0" cy="0" r="1" gradientUnits="userSpaceOnUse" gradientTransform="translate(10.4024 23.8887) rotate(-92.0733) scale(0.366707 0.367606)">
<stop stop-color="white" stop-opacity="0"/>
<stop offset="1" stop-color="white"/>
</radialGradient>
<radialGradient id="paint8_radial_23_1187" cx="0" cy="0" r="1" gradientUnits="userSpaceOnUse" gradientTransform="translate(10.3915 23.403) rotate(90) scale(0.468294 0.469444)">
<stop stop-color="white"/>
</radialGradient>
</defs>
</svg>
