<svg width="785" height="67" viewBox="0 0 785 67" fill="none" xmlns="http://www.w3.org/2000/svg">
<g clip-path="url(#clip0_7_1034)">
<path d="M561.648 57.0936C555.728 62.381 546.801 66.8478 536.053 66.8478C516.015 66.8478 503.628 52.2621 503.628 34.0302V33.8477C503.628 16.345 516.471 0.847839 535.598 0.847839C546.346 0.847839 552.995 3.94728 559.371 9.32562L554.726 14.7954C549.807 10.5108 544.342 7.5026 535.325 7.5026C521.207 7.5026 511.096 19.4445 511.096 33.6655V33.8477C511.096 49.0715 520.843 60.3755 536.327 60.3755C543.613 60.3755 550.354 57.5495 554.726 53.9942V38.1323H535.325V31.66H561.648V57.0936Z" fill="white"/>
<path d="M491.819 48.6158C491.819 59.555 482.711 66.6654 470.05 66.6654C459.94 66.6654 451.651 63.2925 444 56.4555L448.463 51.1682C455.112 57.1849 461.488 60.1931 470.323 60.1931C478.885 60.1931 484.532 55.635 484.532 49.3452V49.1627C484.532 43.2373 481.344 39.8644 467.955 37.0384C453.29 33.8477 446.55 29.1075 446.55 18.6242V18.4417C446.55 8.4141 455.385 1.03003 467.5 1.03003C476.79 1.03003 483.439 3.67384 489.906 8.86998L485.716 14.4308C479.796 9.59929 473.875 7.50259 467.317 7.50259C459.029 7.50259 453.746 12.0607 453.746 17.8037V17.9859C453.746 24.0025 457.025 27.3754 471.052 30.3836C485.261 33.4831 491.819 38.6792 491.819 48.4334V48.6158Z" fill="white"/>
<path d="M605.185 65.7539H648.267V59.0991H612.38V1.94177H605.185V65.7539Z" fill="white"/>
<path fill-rule="evenodd" clip-rule="evenodd" d="M733.538 65.7539H761.865C775.8 65.7539 785 59.2816 785 48.3422V48.16C785 39.4085 778.897 35.0329 771.337 32.754C776.347 30.5661 781.448 26.2814 781.448 17.9859V17.8037C781.448 13.7015 779.99 10.3286 777.349 7.59355C773.705 4.03847 767.967 1.94177 760.681 1.94177H733.538V65.7539ZM774.161 18.9886C774.161 26.4639 768.15 30.3836 759.497 30.3836H740.642V8.41408H760.043C769.151 8.41408 774.161 12.5163 774.161 18.8064V18.9886ZM777.713 47.7041V47.8865C777.713 54.9969 771.702 59.2816 762.047 59.2816H740.642V36.7649H760.772C771.884 36.7649 777.713 40.7759 777.713 47.7041Z" fill="white"/>
<path d="M282.788 33.5004C282.788 51.4497 268.442 65.9999 250.739 65.9999C233.038 65.9999 218.692 51.4497 218.692 33.5004C218.692 15.551 233.038 0.999939 250.739 0.999939C268.442 0.999939 282.788 15.551 282.788 33.5004Z" fill="white"/>
<path d="M45.7607 47.5747C42.2371 51.1071 37.3932 53.2944 32.047 53.2944C21.2723 53.2944 12.5294 44.4321 12.5294 33.5004C12.5294 22.5688 21.2723 13.7074 32.047 13.7074C37.4361 13.7074 42.3149 15.9236 45.8475 19.5059L54.7084 10.5204C48.9081 4.63663 40.8981 1 32.047 1C14.3466 1 0 15.5511 0 33.5004C0 51.4498 14.3466 65.9999 32.047 65.9999C40.8552 65.9999 48.8312 62.3923 54.6217 56.5612L45.7607 47.5747Z" fill="white"/>
<path d="M78.8471 2.18164H65.7064V65.0786H78.8471V2.18164Z" fill="white"/>
<path d="M122.994 29.9015L141.287 2.18164H153.344V65.0786H140.2V27.6988L126.187 48.7971H120.004L105.824 27.6082V65.0786H92.601V2.18164H104.489L122.994 29.9015Z" fill="white"/>
<path d="M161.841 15.0789H181.58V65.0782H194.804V15.0789H214.544V2.25726H161.841V15.0789Z" fill="white"/>
<path fill-rule="evenodd" clip-rule="evenodd" d="M321.108 2.18164H292.646V65.0786H305.869V46.4912H321.108C335.741 46.4912 343.402 35.3465 343.402 24.3359C343.402 13.3254 335.741 2.18164 321.108 2.18164ZM327.97 30.8134C326.35 32.658 324.039 33.5943 321.108 33.5943H305.869V15.1546H321.108C327.846 15.1546 330.237 20.121 330.237 24.374C330.237 26.8277 329.41 29.1736 327.97 30.8134Z" fill="white"/>
<path d="M377.843 26.3681L378.462 26.4868C388.817 28.4456 403 31.1287 403 46.3007C402.926 58.4135 392.917 65.9215 376.879 65.9215C367.627 65.9215 355.832 62.2069 350.491 51.7856L362.228 45.7251C364.665 50.4667 371.595 53.0247 376.879 53.0247C380.761 53.0247 389.78 52.3593 389.78 46.2255C389.814 42.5072 385.405 41.0569 375.516 39.1942C365.421 37.2526 351.624 34.5991 351.624 20.8786C351.525 16.1824 353.148 11.9212 356.308 8.64712C362.617 2.11712 372.798 1.4101 376.879 1.4101C385.257 1.4101 393.917 2.75525 400.566 12.524L389.635 19.5788C386.966 15.3548 382.755 14.462 376.827 14.3849C376.763 14.3849 364.848 14.4583 364.848 20.7255C364.848 23.4946 369.037 24.7519 377.843 26.3681Z" fill="white"/>
<path fill-rule="evenodd" clip-rule="evenodd" d="M710.657 18.3133C710.657 21.1767 709.157 23.6893 706.9 25.1067L720.169 51.4329C723.527 58.0956 718.688 65.9622 711.232 65.9622H668.219C660.733 65.9622 655.896 58.0385 659.313 51.3722L672.738 25.1818C670.413 23.7793 668.858 21.228 668.858 18.3133V9.86369C668.858 5.43763 672.443 1.84961 676.866 1.84961H702.65C707.072 1.84961 710.657 5.43765 710.657 9.86369V18.3133ZM674.864 18.3133C674.864 18.894 675.111 19.417 675.505 19.7829C675.862 20.1143 676.34 20.3168 676.866 20.3168H681.981L664.657 54.1157C663.29 56.7822 665.225 59.9517 668.219 59.9517H711.232C714.215 59.9517 716.15 56.805 714.807 54.1399L697.759 20.3168H702.65C703.245 20.3168 703.78 20.0567 704.146 19.6439C704.461 19.29 704.652 18.824 704.652 18.3133V9.86369C704.652 8.75717 703.755 7.86017 702.65 7.86017H676.866C675.76 7.86017 674.864 8.75717 674.864 9.86369V18.3133Z" fill="white"/>
<path d="M701.503 27.744L714.807 54.1399C716.15 56.805 714.215 59.9517 711.232 59.9517H668.219C665.225 59.9517 663.29 56.7822 664.657 54.1157L676.512 30.9872C680.897 31.1168 685.726 30.6404 690.978 29.318C694.645 28.3946 698.16 27.8983 701.503 27.744Z" fill="#E60013"/>
<path d="M250.738 15.7322C241.075 15.7322 233.216 23.6853 233.216 33.5003C233.216 43.3143 241.075 51.2674 250.738 51.2674C260.404 51.2674 268.262 43.3143 268.262 33.5003C268.262 23.6853 260.404 15.7322 250.738 15.7322Z" fill="#E60013"/>
<path d="M696.797 46.8696C700.391 46.8696 703.303 43.9543 703.303 40.3582C703.303 36.762 700.391 33.8467 696.797 33.8467C693.204 33.8467 690.291 36.762 690.291 40.3582C690.291 43.9543 693.204 46.8696 696.797 46.8696Z" fill="url(#paint0_linear_7_1034)"/>
<path d="M680.783 54.8837C682.165 54.8837 683.285 53.7624 683.285 52.3793C683.285 50.9961 682.165 49.8749 680.783 49.8749C679.401 49.8749 678.28 50.9961 678.28 52.3793C678.28 53.7624 679.401 54.8837 680.783 54.8837Z" fill="url(#paint1_linear_7_1034)"/>
</g>
<defs>
<linearGradient id="paint0_linear_7_1034" x1="690.792" y1="29.4424" x2="690.792" y2="72.1841" gradientUnits="userSpaceOnUse">
<stop stop-color="white"/>
<stop offset="1" stop-color="white" stop-opacity="0"/>
</linearGradient>
<linearGradient id="paint1_linear_7_1034" x1="690.792" y1="29.4424" x2="690.792" y2="72.1841" gradientUnits="userSpaceOnUse">
<stop stop-color="white"/>
<stop offset="1" stop-color="white" stop-opacity="0"/>
</linearGradient>
<clipPath id="clip0_7_1034">
<rect width="785" height="67" fill="white"/>
</clipPath>
</defs>
</svg>
