<svg width="369" height="32" viewBox="0 0 369 32" fill="none" xmlns="http://www.w3.org/2000/svg">
<path d="M21.4937 22.876C19.8386 24.5352 17.5635 25.5625 15.0524 25.5625C9.99154 25.5625 5.88501 21.3999 5.88501 16.2653C5.88501 11.1308 9.99154 6.96862 15.0524 6.96862C17.5836 6.96862 19.8752 8.00959 21.5344 9.69216L25.6964 5.47168C22.972 2.70812 19.2097 1 15.0524 1C6.73856 1 0 7.8346 0 16.2653C0 24.6961 6.73856 31.5303 15.0524 31.5303C19.1896 31.5303 22.9359 29.8358 25.6556 27.0969L21.4937 22.876Z" fill="white"/>
<path d="M37.0342 1.55499H30.8621V31.0975H37.0342V1.55499Z" fill="white"/>
<path d="M66.3619 1.55499L57.7701 14.5749L49.078 1.55499H43.4944V31.0975H49.7052V13.4978L56.3657 23.4502H59.2698L65.8517 13.5403V31.0975H72.0252V1.55499H66.3619Z" fill="white"/>
<path d="M76.0162 7.61281H85.2877V31.0973H91.499V7.61281H100.771V1.59055H76.0162V7.61281Z" fill="white"/>
<path d="M132.825 16.2653C132.825 24.6961 126.086 31.5302 117.771 31.5302C109.457 31.5302 102.719 24.6961 102.719 16.2653C102.719 7.83456 109.457 0.999956 117.771 0.999956C126.086 0.999956 132.825 7.83456 132.825 16.2653Z" fill="white"/>
<path d="M154.046 15.0032C153.286 15.8696 152.2 16.3094 150.823 16.3094H143.666V7.64836H150.823C153.988 7.64836 155.111 9.98106 155.111 11.9787C155.111 13.1312 154.723 14.233 154.046 15.0032ZM150.823 1.55499H137.455V31.0975H143.666V22.367H150.823C157.697 22.367 161.295 17.1324 161.295 11.9608C161.295 6.78919 157.697 1.55499 150.823 1.55499Z" fill="white"/>
<path d="M177.763 12.9711L177.472 12.9153C173.336 12.1562 171.368 11.5657 171.368 10.265C171.368 7.32134 176.965 7.28685 176.995 7.28685C179.779 7.32304 181.757 7.7424 183.01 9.72641L188.145 6.41278C185.022 1.82444 180.954 1.19263 177.019 1.19263C175.102 1.19263 170.32 1.52471 167.357 4.59184C165.873 6.12965 165.11 8.13112 165.157 10.3369C165.157 16.7816 171.637 18.0277 176.379 18.9397C181.024 19.8146 183.094 20.4958 183.078 22.2423C183.078 25.1233 178.842 25.4358 177.019 25.4358C174.537 25.4358 171.282 24.2344 170.137 22.0072L164.625 24.8538C167.133 29.7487 172.673 31.4934 177.019 31.4934C184.552 31.4934 189.253 27.9669 189.288 22.2776C189.288 15.1514 182.626 13.8911 177.763 12.9711Z" fill="white"/>
<path d="M117.771 7.91968C113.232 7.91968 109.541 11.6552 109.541 16.2653C109.541 20.8749 113.232 24.6104 117.771 24.6104C122.311 24.6104 126.002 20.8749 126.002 16.2653C126.002 11.6552 122.311 7.91968 117.771 7.91968Z" fill="#E60013"/>
<path d="M251.783 31.9285C256.831 31.9285 261.024 29.8305 263.804 27.347V15.4009H251.44V18.4409H260.553V25.8912C258.499 27.5611 255.334 28.8885 251.911 28.8885C244.638 28.8885 240.06 23.579 240.06 16.4285V16.3429C240.06 9.66331 244.809 4.05425 251.44 4.05425C255.676 4.05425 258.243 5.4672 260.553 7.47967L262.735 4.91052C259.74 2.38433 256.617 0.928528 251.569 0.928528C242.585 0.928528 236.552 8.20751 236.552 16.4285V16.5142C236.552 25.0777 242.371 31.9285 251.783 31.9285Z" fill="white"/>
<path d="M220.781 31.8428C226.728 31.8428 231.006 28.5031 231.006 23.365V23.2793C231.006 18.6978 227.926 16.2572 221.252 14.8014C214.663 13.3884 213.123 11.8042 213.123 8.9782V8.89262C213.123 6.19515 215.604 4.05425 219.498 4.05425C222.578 4.05425 225.359 5.03906 228.139 7.3084L230.107 4.69651C227.07 2.2559 223.947 1.01411 219.583 1.01411C213.893 1.01411 209.743 4.48238 209.743 9.19233V9.27803C209.743 14.202 212.909 16.4285 219.797 17.9271C226.086 19.2545 227.583 20.8387 227.583 23.6219V23.7076C227.583 26.6619 224.931 28.8028 220.909 28.8028C216.76 28.8028 213.765 27.3899 210.642 24.5638L208.545 27.0473C212.139 30.2586 216.032 31.8428 220.781 31.8428Z" fill="white"/>
<path d="M304.489 31.4147H284.253V1.44236H287.633V28.289H304.489V31.4147Z" fill="white"/>
<path fill-rule="evenodd" clip-rule="evenodd" d="M357.846 31.4147H344.54V1.44236H357.289C360.712 1.44236 363.407 2.42717 365.118 4.09698C366.359 5.38162 367.044 6.96584 367.044 8.89262V8.9782C367.044 12.8746 364.648 14.8871 362.295 15.9148C365.846 16.9851 368.712 19.0404 368.712 23.1509V23.2365C368.712 28.3747 364.391 31.4147 357.846 31.4147ZM356.733 14.8014C360.798 14.8014 363.621 12.9603 363.621 9.44919V9.36361C363.621 6.40916 361.268 4.48238 356.99 4.48238H347.877V14.8014H356.733ZM365.29 23.0225V22.9368C365.29 19.6826 362.552 17.7987 357.332 17.7987H347.877V28.3747H357.931C362.466 28.3747 365.29 26.3622 365.29 23.0225Z" fill="white"/>
<path fill-rule="evenodd" clip-rule="evenodd" d="M316.981 9.13201C316.981 9.40475 317.097 9.65039 317.283 9.82227C317.45 9.97791 317.675 10.0731 317.922 10.0731H320.324L312.187 25.9483C311.545 27.2007 312.454 28.6894 313.861 28.6894H334.064C335.464 28.6894 336.374 27.2115 335.743 25.9597L327.735 10.0731H330.032C330.312 10.0731 330.563 9.95089 330.735 9.75697C330.883 9.59077 330.973 9.37187 330.973 9.13201V5.16325C330.973 4.64352 330.552 4.2222 330.032 4.2222H317.922C317.402 4.2222 316.981 4.64352 316.981 5.16325V9.13201Z" fill="url(#paint0_linear_23_1150)"/>
<path fill-rule="evenodd" clip-rule="evenodd" d="M317.283 9.82226C317.097 9.65039 316.981 9.40474 316.981 9.132V5.16324C316.981 4.64351 317.402 4.22219 317.922 4.22219H330.032C330.552 4.22219 330.973 4.64351 330.973 5.16324V9.132C330.973 9.37186 330.883 9.59076 330.735 9.75696C330.563 9.95088 330.312 10.073 330.032 10.073H327.735L335.743 25.9597C336.374 27.2114 335.464 28.6894 334.064 28.6894H313.861C312.454 28.6894 311.545 27.2007 312.187 25.9483L320.324 10.073H317.922C317.675 10.073 317.45 9.9779 317.283 9.82226ZM332.029 12.3228C333.089 11.6571 333.794 10.4769 333.794 9.132V5.16324C333.794 3.08434 332.11 1.39905 330.032 1.39905H317.922C315.845 1.39905 314.161 3.08433 314.161 5.16324V9.132C314.161 10.501 314.891 11.6994 315.983 12.3581L309.677 24.6597C308.073 27.7908 310.344 31.5126 313.861 31.5126H334.064C337.566 31.5126 339.838 27.8176 338.261 24.6882L332.029 12.3228Z" fill="white"/>
<mask id="mask0_23_1150" style="mask-type:alpha" maskUnits="userSpaceOnUse" x="311" y="4" width="25" height="25">
<path d="M320.324 10.0731H317.922C317.402 10.0731 316.981 9.65174 316.981 9.13201V5.16325C316.981 4.64352 317.402 4.2222 317.922 4.2222H330.032C330.552 4.2222 330.973 4.64352 330.973 5.16325V9.13201C330.973 9.65174 330.552 10.0731 330.032 10.0731H327.735L335.743 25.9597C336.374 27.2115 335.464 28.6894 334.064 28.6894H313.861C312.454 28.6894 311.545 27.2007 312.187 25.9483L320.324 10.0731Z" fill="#C4C4C4"/>
</mask>
<g mask="url(#mask0_23_1150)">
<mask id="mask1_23_1150" style="mask-type:alpha" maskUnits="userSpaceOnUse" x="312" y="4" width="24" height="25">
<rect x="312.007" y="4.1944" width="23.9735" height="24.5228" fill="#C4C4C4"/>
</mask>
<g mask="url(#mask1_23_1150)">
<path d="M324.55 14.3009C313.375 17.1146 306.282 11.7746 304.133 8.75284L289.408 20.1092L302.125 32.5842L333.535 43.0693L353.493 40.2043L346.563 20.2824C343.882 17.1161 335.726 11.4871 324.55 14.3009Z" fill="#E60013"/>
<path fill-rule="evenodd" clip-rule="evenodd" d="M327.284 22.5448C328.971 22.5448 330.34 21.1756 330.34 19.4864C330.34 17.7973 328.971 16.428 327.284 16.428C325.596 16.428 324.228 17.7973 324.228 19.4864C324.228 21.1756 325.596 22.5448 327.284 22.5448ZM319.762 26.309C320.411 26.309 320.937 25.7824 320.937 25.1327C320.937 24.4831 320.411 23.9564 319.762 23.9564C319.113 23.9564 318.586 24.4831 318.586 25.1327C318.586 25.7824 319.113 26.309 319.762 26.309Z" fill="url(#paint1_linear_23_1150)"/>
</g>
</g>
<defs>
<linearGradient id="paint0_linear_23_1150" x1="323.962" y1="-0.0303814" x2="323.962" y2="28.6894" gradientUnits="userSpaceOnUse">
<stop stop-color="white" stop-opacity="0.54"/>
<stop offset="1" stop-color="white" stop-opacity="0"/>
</linearGradient>
<linearGradient id="paint1_linear_23_1150" x1="324.463" y1="14.3593" x2="324.463" y2="34.435" gradientUnits="userSpaceOnUse">
<stop stop-color="white"/>
<stop offset="1" stop-color="white" stop-opacity="0"/>
</linearGradient>
</defs>
</svg>
