<svg width="346" height="31" viewBox="0 0 346 31" fill="none" xmlns="http://www.w3.org/2000/svg">
<path d="M59.1948 20.7602C57.8294 22.129 55.9524 22.9766 53.8807 22.9766C49.7055 22.9766 46.3176 19.5424 46.3176 15.3064C46.3176 11.0704 49.7055 7.63661 53.8807 7.63661C55.969 7.63661 57.8595 8.4954 59.2284 9.88353L62.662 6.40163C60.4144 4.12169 57.3105 2.71249 53.8807 2.71249C47.0218 2.71249 41.4625 8.35104 41.4625 15.3064C41.4625 22.2618 47.0218 27.9 53.8807 27.9C57.2939 27.9 60.3846 26.502 62.6284 24.2424L59.1948 20.7602Z" fill="white"/>
<path d="M72.0158 3.17038H66.9237V27.543H72.0158V3.17038Z" fill="white"/>
<path d="M96.211 3.17038L89.1228 13.9118L81.9518 3.17038H77.3454V27.543H82.4693V13.0232L87.9642 21.2339H90.3601L95.7902 13.0583V27.543H100.883V3.17038H96.211Z" fill="white"/>
<path d="M104.176 8.16805H111.825V27.5428H116.949V8.16805H124.598V3.19968H104.176V8.16805Z" fill="white"/>
<path d="M151.043 15.3064C151.043 22.2618 145.484 27.9 138.624 27.9C131.765 27.9 126.205 22.2618 126.205 15.3064C126.205 8.35103 131.765 2.71248 138.624 2.71248C145.484 2.71248 151.043 8.35103 151.043 15.3064Z" fill="white"/>
<path d="M168.551 14.2652C167.923 14.98 167.028 15.3428 165.892 15.3428H159.987V8.19741H165.892C168.503 8.19741 169.429 10.1219 169.429 11.7699C169.429 12.7208 169.109 13.6298 168.551 14.2652ZM165.892 3.17038H154.863V27.543H159.987V20.3403H165.892C171.562 20.3403 174.531 16.0218 174.531 11.7552C174.531 7.48859 171.562 3.17038 165.892 3.17038Z" fill="white"/>
<path d="M188.117 12.5886L187.877 12.5426C184.464 11.9163 182.841 11.4292 182.841 10.3561C182.841 7.92758 187.458 7.89913 187.483 7.89913C189.78 7.92899 191.412 8.27497 192.446 9.91177L196.682 7.17802C194.105 3.39265 190.749 2.8714 187.503 2.8714C185.922 2.8714 181.976 3.14537 179.532 5.67575C178.307 6.94445 177.678 8.59565 177.717 10.4155C177.717 15.7323 183.063 16.7604 186.975 17.5127C190.807 18.2345 192.515 18.7965 192.502 20.2373C192.502 22.6142 189.008 22.872 187.503 22.872C185.455 22.872 182.77 21.8808 181.826 20.0435L177.278 22.3919C179.347 26.4302 183.918 27.8696 187.503 27.8696C193.718 27.8696 197.596 24.9602 197.625 20.2665C197.625 14.3873 192.129 13.3477 188.117 12.5886Z" fill="white"/>
<path d="M138.623 8.42123C134.879 8.42123 131.834 11.5031 131.834 15.3063C131.834 19.1093 134.879 22.1911 138.623 22.1911C142.369 22.1911 145.414 19.1093 145.414 15.3063C145.414 11.5031 142.369 8.42123 138.623 8.42123Z" fill="#E60013"/>
<path d="M249.183 28.2285C253.348 28.2285 256.807 26.4976 259.101 24.4488V14.5933H248.901V17.1013H256.419V23.2477C254.725 24.6254 252.113 25.7205 249.289 25.7205C243.289 25.7205 239.512 21.3402 239.512 15.441V15.3704C239.512 9.85973 243.43 5.23225 248.901 5.23225C252.395 5.23225 254.513 6.39794 256.419 8.05823L258.219 5.93868C255.748 3.85457 253.172 2.65353 249.007 2.65353C241.595 2.65353 236.618 8.6587 236.618 15.441V15.5117C236.618 22.5766 241.418 28.2285 249.183 28.2285Z" fill="white"/>
<path d="M223.607 28.1578C228.513 28.1578 232.042 25.4026 232.042 21.1636V21.0929C232.042 17.3132 229.501 15.2997 223.995 14.0986C218.56 12.933 217.289 11.626 217.289 9.29452V9.22391C217.289 6.9985 219.336 5.23225 222.548 5.23225C225.089 5.23225 227.383 6.04472 229.678 7.91693L231.301 5.76212C228.795 3.74861 226.219 2.72414 222.619 2.72414C217.924 2.72414 214.501 5.58546 214.501 9.47117V9.54187C214.501 13.6041 217.113 15.441 222.795 16.6774C227.983 17.7724 229.219 19.0794 229.219 21.3755V21.4462C229.219 23.8836 227.03 25.6498 223.713 25.6498C220.289 25.6498 217.819 24.4841 215.242 22.1527L213.513 24.2015C216.477 26.8508 219.689 28.1578 223.607 28.1578Z" fill="white"/>
<path d="M292.666 27.8046H275.972V3.07744H278.76V25.2259H292.666V27.8046Z" fill="white"/>
<path fill-rule="evenodd" clip-rule="evenodd" d="M336.685 27.8046H325.708V3.07744H336.226C339.05 3.07744 341.273 3.88992 342.685 5.26751C343.709 6.32733 344.273 7.63432 344.273 9.22391V9.29452C344.273 12.5091 342.297 14.1693 340.356 15.0172C343.285 15.9002 345.65 17.5958 345.65 20.987V21.0576C345.65 25.2966 342.085 27.8046 336.685 27.8046ZM335.767 14.0986C339.12 14.0986 341.45 12.5798 341.45 9.68308V9.61247C341.45 7.17506 339.509 5.58546 335.979 5.58546H328.461V14.0986H335.767ZM342.826 20.881V20.8103C342.826 18.1257 340.568 16.5714 336.262 16.5714H328.461V25.2966H336.756C340.497 25.2966 342.826 23.6363 342.826 20.881Z" fill="white"/>
<path fill-rule="evenodd" clip-rule="evenodd" d="M295.706 27.8636H298.565L301.495 21.3286H314.942L317.836 27.8636H320.836L309.577 2.95975H306.965L295.706 27.8636ZM302.589 18.7852L308.236 6.20964L313.848 18.7852H302.589Z" fill="white"/>
<path fill-rule="evenodd" clip-rule="evenodd" d="M8.07671 7.9606C8.07671 8.24137 8.19632 8.49424 8.38742 8.67118C8.56049 8.8314 8.79218 8.92935 9.04678 8.92935H11.5256L3.13056 25.2719C2.46824 26.5612 3.40576 28.0938 4.85682 28.0938H25.7004C27.1457 28.0938 28.0836 26.5723 27.4327 25.2836L19.1716 8.92935H21.5415C21.83 8.92935 22.0891 8.80358 22.2668 8.60395C22.4191 8.43286 22.5116 8.20752 22.5116 7.9606V3.875C22.5116 3.33997 22.0773 2.90625 21.5415 2.90625H9.04678C8.51102 2.90625 8.07671 3.33997 8.07671 3.875V7.9606Z" fill="url(#paint0_linear_23_1224)"/>
<path fill-rule="evenodd" clip-rule="evenodd" d="M8.38742 8.67118C8.19631 8.49424 8.0767 8.24137 8.0767 7.9606V3.875C8.0767 3.33997 8.51102 2.90625 9.04678 2.90625H21.5415C22.0773 2.90625 22.5116 3.33997 22.5116 3.875V7.9606C22.5116 8.20752 22.4191 8.43286 22.2668 8.60395C22.0891 8.80358 21.83 8.92935 21.5415 8.92935H19.1716L27.4327 25.2836C28.0836 26.5723 27.1457 28.0938 25.7004 28.0938H4.85681C3.40576 28.0938 2.46824 26.5612 3.13055 25.2719L11.5256 8.92935H9.04678C8.79217 8.92935 8.56048 8.8314 8.38742 8.67118ZM23.601 11.2453C24.6947 10.56 25.4218 9.34511 25.4218 7.9606V3.875C25.4218 1.7349 23.6845 0 21.5415 0H9.04678C6.90374 0 5.16647 1.7349 5.16647 3.875V7.9606C5.16647 9.36993 5.91988 10.6035 7.04642 11.2817L0.54116 23.9454C-1.11462 27.1687 1.22918 31 4.85681 31H25.7004C29.3136 31 31.6584 27.1963 30.031 23.9747L23.601 11.2453Z" fill="white"/>
<mask id="mask0_23_1224" style="mask-type:alpha" maskUnits="userSpaceOnUse" x="2" y="2" width="26" height="27">
<path d="M11.5256 8.92935H9.04678C8.51102 8.92935 8.07671 8.49562 8.07671 7.9606V3.875C8.07671 3.33997 8.51102 2.90625 9.04678 2.90625H21.5415C22.0773 2.90625 22.5116 3.33997 22.5116 3.875V7.9606C22.5116 8.49562 22.0773 8.92935 21.5415 8.92935H19.1716L27.4327 25.2836C28.0836 26.5723 27.1457 28.0938 25.7004 28.0938H4.85682C3.40576 28.0938 2.46824 26.5612 3.13056 25.2719L11.5256 8.92935Z" fill="#C4C4C4"/>
</mask>
<g mask="url(#mask0_23_1224)">
<mask id="mask1_23_1224" style="mask-type:alpha" maskUnits="userSpaceOnUse" x="2" y="2" width="26" height="27">
<rect x="2.94449" y="2.87762" width="24.7336" height="25.2447" fill="#C4C4C4"/>
</mask>
<g mask="url(#mask1_23_1224)">
<path opacity="0.4" d="M12.7193 14.6569C21.1822 18.7262 26.3448 14.1018 27.8682 11.2809L39.2423 24.3788L30.0709 35.6039L6.82317 42.7699L-8.22724 37.6872L-3.61306 18.2966C-1.69513 15.3878 4.25644 10.5875 12.7193 14.6569Z" fill="#E60013"/>
<path opacity="0.4" d="M4.46449 16.4292C-3.8168 21.1869 -10.52 18.2647 -12.8365 16.2089L-22.1939 28.8555L-9.58609 36.5133L17.4256 38.4782L32.6537 31.7827L23.1171 16.6667C20.3501 14.6051 12.7458 11.6715 4.46449 16.4292Z" fill="#E60013"/>
<path opacity="0.4" d="M18.2533 15.8255C8.44143 18.8843 2.83576 13.5705 1.25941 10.5313L-12.3355 22.3492L-2.5378 34.8298L23.4353 44.9599L40.7697 41.6965L36.5749 21.5334C34.556 18.3563 28.0652 12.7668 18.2533 15.8255Z" fill="#E60013" stroke="url(#paint1_linear_23_1224)" stroke-width="3"/>
<g opacity="0.4">
<path d="M15.7558 15.5513C6.83577 20.6549 0.214663 16.6758 -1.98089 14.0483L-12.7031 28.5208L-0.440984 38.5932L27.1075 42.8808L43.3285 35.9544L34.8781 17.1717C32.2207 14.5051 24.6758 10.4477 15.7558 15.5513Z" fill="#E60013"/>
<path d="M15.7558 15.5513C6.83577 20.6549 0.214663 16.6758 -1.98089 14.0483L-12.7031 28.5208L-0.440984 38.5932L27.1075 42.8808L43.3285 35.9544L34.8781 17.1717C32.2207 14.5051 24.6758 10.4477 15.7558 15.5513Z" stroke="url(#paint2_linear_23_1224)" stroke-width="3" style="mix-blend-mode:lighten"/>
</g>
<ellipse cx="18.7056" cy="18.6484" rx="3.15275" ry="3.14844" fill="url(#paint3_radial_23_1224)"/>
<ellipse cx="18.7056" cy="18.6484" rx="3.15275" ry="3.14844" fill="url(#paint4_radial_23_1224)" fill-opacity="0.2"/>
<ellipse opacity="0.9" cx="17.1434" cy="16.9388" rx="0.719761" ry="0.719409" fill="white"/>
<ellipse cx="10.945" cy="24.4609" rx="1.21259" ry="1.21094" fill="url(#paint5_radial_23_1224)"/>
<ellipse cx="10.945" cy="24.4609" rx="1.21259" ry="1.21094" fill="url(#paint6_radial_23_1224)" fill-opacity="0.2"/>
<ellipse cx="10.3711" cy="23.7078" rx="0.163582" ry="0.163502" fill="url(#paint7_radial_23_1224)"/>
<ellipse cx="10.3711" cy="23.7078" rx="0.163582" ry="0.163502" fill="url(#paint8_radial_23_1224)" fill-opacity="0.2"/>
</g>
</g>
<defs>
<linearGradient id="paint0_linear_23_1224" x1="15.2786" y1="-1.47152" x2="15.2786" y2="28.0937" gradientUnits="userSpaceOnUse">
<stop stop-color="white" stop-opacity="0.54"/>
<stop offset="1" stop-color="white" stop-opacity="0"/>
</linearGradient>
<linearGradient id="paint1_linear_23_1224" x1="4.12227" y1="13.0801" x2="13.1195" y2="14.5833" gradientUnits="userSpaceOnUse">
<stop stop-color="white"/>
<stop offset="1" stop-color="white" stop-opacity="0"/>
</linearGradient>
<linearGradient id="paint2_linear_23_1224" x1="4.28586" y1="17.2658" x2="17.0778" y2="16.5748" gradientUnits="userSpaceOnUse">
<stop stop-color="white"/>
<stop offset="1" stop-color="white" stop-opacity="0"/>
</linearGradient>
<radialGradient id="paint3_radial_23_1224" cx="0" cy="0" r="1" gradientUnits="userSpaceOnUse" gradientTransform="translate(18.9147 22.1316) rotate(-92.071) scale(7.06136 7.07102)">
<stop stop-color="white" stop-opacity="0"/>
<stop offset="1" stop-color="white"/>
</radialGradient>
<radialGradient id="paint4_radial_23_1224" cx="0" cy="0" r="1" gradientUnits="userSpaceOnUse" gradientTransform="translate(18.7056 12.7793) rotate(90) scale(9.01755 9.02989)">
<stop stop-color="white"/>
</radialGradient>
<radialGradient id="paint5_radial_23_1224" cx="0" cy="0" r="1" gradientUnits="userSpaceOnUse" gradientTransform="translate(11.0255 25.8006) rotate(-92.071) scale(2.71591 2.71962)">
<stop stop-color="white" stop-opacity="0"/>
<stop offset="1" stop-color="white"/>
</radialGradient>
<radialGradient id="paint6_radial_23_1224" cx="0" cy="0" r="1" gradientUnits="userSpaceOnUse" gradientTransform="translate(10.945 22.2036) rotate(90) scale(3.46829 3.47303)">
<stop stop-color="white"/>
</radialGradient>
<radialGradient id="paint7_radial_23_1224" cx="0" cy="0" r="1" gradientUnits="userSpaceOnUse" gradientTransform="translate(10.382 23.8887) rotate(-92.0692) scale(0.366704 0.366885)">
<stop stop-color="white" stop-opacity="0"/>
<stop offset="1" stop-color="white"/>
</radialGradient>
<radialGradient id="paint8_radial_23_1224" cx="0" cy="0" r="1" gradientUnits="userSpaceOnUse" gradientTransform="translate(10.3711 23.403) rotate(90) scale(0.468291 0.468522)">
<stop stop-color="white"/>
</radialGradient>
</defs>
</svg>
