<svg width="16" height="16" viewBox="0 0 16 16" fill="none" xmlns="http://www.w3.org/2000/svg">
<path fill-rule="evenodd" clip-rule="evenodd" d="M12.6472 4.59511C12.6472 5.22037 12.3141 5.76905 11.813 6.07854L14.759 11.8273C15.5045 13.2822 14.4303 15 12.7749 15H3.22519C1.56316 15 0.489327 13.2697 1.24794 11.814L4.22837 6.09495C3.71224 5.7887 3.36706 5.23158 3.36706 4.59511V2.75C3.36706 1.7835 4.16301 1 5.14485 1H10.8694C11.8513 1 12.6472 1.7835 12.6472 2.75V4.59511ZM4.70041 4.59511C4.70041 4.72191 4.75521 4.83611 4.84276 4.91602C4.92205 4.98837 5.02821 5.03261 5.14485 5.03261H6.28055L5.06631 7.3626C6.0399 7.39089 7.11191 7.28684 8.27795 6.99809C9.0922 6.79646 9.87254 6.68808 10.6147 6.65439L9.78363 5.03261H10.8694C11.0016 5.03261 11.1203 4.97581 11.2017 4.88566C11.2715 4.80839 11.3139 4.70662 11.3139 4.59511V2.75C11.3139 2.50838 11.1149 2.3125 10.8694 2.3125H5.14485C4.89939 2.3125 4.70041 2.50838 4.70041 2.75V4.59511ZM11.0145 9.40889C11.0145 10.1942 10.3678 10.8308 9.57006 10.8308C8.77231 10.8308 8.12561 10.1942 8.12561 9.40889C8.12561 8.62361 8.77231 7.98702 9.57006 7.98702C10.3678 7.98702 11.0145 8.62361 11.0145 9.40889ZM6.57005 12.0339C6.57005 12.3359 6.32132 12.5808 6.01449 12.5808C5.70766 12.5808 5.45893 12.3359 5.45893 12.0339C5.45893 11.7319 5.70766 11.487 6.01449 11.487C6.32132 11.487 6.57005 11.7319 6.57005 12.0339Z" fill="black"/>
</svg>
